<?xml version="1.0" encoding="utf-8"?>
<!-- Generator: Adobe Illustrator 16.0.0, SVG Export Plug-In . SVG Version: 6.00 Build 0)  -->
<!DOCTYPE svg PUBLIC "-//W3C//DTD SVG 1.1//EN" "http://www.w3.org/Graphics/SVG/1.1/DTD/svg11.dtd">
<svg version="1.1" id="图层_1" xmlns="http://www.w3.org/2000/svg" xmlns:xlink="http://www.w3.org/1999/xlink" x="0px"
     y="0px"
     width="186px" height="48px" viewBox="0 0 186 48" enable-background="new 0 0 186 48" xml:space="preserve">
<g>
	<g>
		<path fill="#D6040B" d="M39.555,31.581v8.496v4.885v1.688h1.861l0.098,0.004h2.327h0.404c0.322,0,0.618-0.099,0.866-0.266
			l0.006-0.003l0.052-0.04c0.384-0.283,0.637-0.739,0.637-1.255l-0.002-0.001l0.002-0.003l-0.002-0.004l0.002-0.005L45.8,45.016
			l0.005-0.055v-1.668v-3.217V23.434L39.555,31.581z"/>
        <path fill="#D6040B" d="M19.476,23.435l-4.898,6.251l14.212-2.104c0.089-0.018,0.186-0.032,0.282-0.039
			c0.146-0.028,0.297-0.045,0.452-0.045c1.381,0,2.501,1.121,2.501,2.501c0,1.241-0.905,2.268-2.089,2.465h-0.003L29.8,32.488
			l-6.823,1.121l-3.406,4.866l-2.863,4.087c-0.211,0.303-0.628,0.377-0.933,0.161c-0.301-0.209-0.376-0.627-0.165-0.931h0
			l2.754-3.932c-5.559-3.064-9.238-8.384-9.238-14.436c0-8.96,8.064-16.317,18.357-17.118c0.619-0.048,1.24-0.075,1.871-0.075
			l0.051,0.001c0.183,0,0.367,0.004,0.548,0.007c0.071,0.003,0.139,0.005,0.208,0.008c0.136,0.004,0.271,0.01,0.409,0.017
			c0.071,0.002,0.141,0.007,0.211,0.012c0.151,0.007,0.302,0.019,0.453,0.03l0.142,0.009c0.202,0.017,0.401,0.038,0.6,0.058
			l0.091,0.01c0.171,0.021,0.344,0.042,0.511,0.064l0.142,0.02c0.165,0.024,0.334,0.05,0.498,0.078l0.092,0.015
			c5.576,0.94,10.326,3.825,13.231,7.793C45.745,12.979,36.174-2.772,17.677,3.448c0,0-16.606,5.735-15.588,22.709
			c0,0,0.42,14.971,17.033,19.697c1.005,0.285,4.191,0.886,6.14,0.789l4.713-6.036l0.164-0.216l16.558-21.465L19.476,23.435z"/>
        <polygon fill="#D6040B" points="33.302,39.753 33.302,46.654 37.767,46.654 37.767,33.926 		"/>
        <polygon fill="#D6040B" points="31.516,46.655 31.516,42.098 27.943,46.655 		"/>
	</g>
    <g>
		<path fill="#211714" d="M96.401,14.805h-2.667V8.5h2.667V14.805z M97.41,24.795h3.302v-4.046H97.41v-3.792h3.682V6.003h-0.075
			H89.2h-0.159v10.955h3.684v14.86h-0.784V18.039h-2.812v13.779h-0.611v0.931h12.851v-2.505H97.41V24.795z M107.17,6.596V5.286
			h-4.65h-0.038v4.394h7.118h2.758l-2.956,3.362l-1.478-1.515h-5.205l4.209,4.316l-4.553,5.168h4.975l2.193-2.489l2.428,2.489h5.205
			l-5.162-5.292l5.218-5.922V6.596h0.121H107.17z M112.497,30.244h-5.415v-5.618h5.415V30.244z M102.392,22.127V32.74l14.798,0.009
			V22.127H102.392z"/>
        <polygon fill="#211714" points="150.303,25.383 140.11,25.383 140.11,22.042 149.77,22.042 149.77,18.685 140.11,18.685
			140.11,13.136 134.463,13.136 134.463,18.685 128.223,18.685 132.303,10.353 150.303,10.353 150.303,6.995 133.946,6.995 
			134.781,5.286 128.397,5.286 127.561,6.995 121.469,6.995 121.469,10.353 125.919,10.353 121.842,18.685 121.842,22.042 
			134.463,22.042 134.463,25.383 121.469,25.383 121.469,28.742 134.463,28.742 134.463,32.747 140.11,32.747 140.11,28.742 
			150.303,28.742 		"/>
        <polygon fill="#211714" points="174.877,26.206 182.41,26.206 182.41,7.11 177.625,7.11 177.625,25.287 174.877,25.287
			174.877,5.286 170.096,5.286 170.096,29.383 167.584,29.383 167.584,5.286 162.797,5.286 162.797,29.383 154.42,29.383 
			154.42,32.747 183.252,32.747 183.252,29.383 174.877,29.383 		"/>
        <rect x="155.266" y="7.112" fill="#211714" width="4.787" height="19.097"/>
        <polygon fill="#211714" points="72.33,6.463 72.33,5.286 67.575,5.286 67.575,6.463 55.564,6.463 55.564,10.84 59.352,10.84
			59.352,9.598 80.606,9.598 80.606,10.84 84.397,10.84 84.397,6.463 		"/>
        <path fill="#211714"
              d="M77.903,18.594H62.059v-1.375h15.844V18.594z M57.899,20.958h24.162v-6.104H57.899V20.958z"/>
        <path fill="#211714" d="M78.604,26.016h-6.58v-1.735h6.58V26.016z M78.604,30.244h-6.58v-1.73h6.58V30.244z M67.742,26.016h-6.386
			v-1.735h6.386V26.016z M67.742,30.244h-6.386v-1.73h6.386V30.244z M57.073,32.744h25.814V21.784H57.073V32.744z"/>
        <rect x="57.899" y="11.489" fill="#211714" width="24.165" height="2.497"/>
        <polygon fill="#211714" points="55.562,37.131 64.067,37.131 64.067,38.992 58.731,38.992 58.731,40.581 63.326,40.581
			63.326,42.442 58.731,42.442 58.731,46.208 55.562,46.208 		"/>
        <path fill="#211714" d="M66.633,37.131h3.22v5.433c0,0.678,0.194,1.19,0.578,1.534c0.386,0.344,0.957,0.519,1.71,0.519
			c0.751,0,1.319-0.172,1.703-0.514c0.381-0.346,0.57-0.859,0.57-1.539v-5.433h3.217v5.46c0,0.652-0.057,1.171-0.173,1.55
			s-0.308,0.712-0.583,0.996c-0.429,0.446-1.038,0.78-1.831,1.002c-0.791,0.222-1.758,0.336-2.904,0.336
			c-1.142,0-2.113-0.114-2.911-0.336c-0.796-0.222-1.408-0.556-1.841-1.002c-0.275-0.284-0.467-0.617-0.581-0.996
			c-0.116-0.384-0.175-0.899-0.175-1.55V37.131z"/>
        <polygon fill="#211714"
                 points="80.985,37.131 84.275,37.131 84.275,44.35 89.61,44.35 89.61,46.208 80.985,46.208 		"/>
        <path fill="#211714" d="M92.013,37.131h3.219v5.433c0,0.678,0.194,1.19,0.58,1.534c0.383,0.344,0.955,0.519,1.708,0.519
			c0.75,0,1.316-0.172,1.702-0.514c0.382-0.346,0.569-0.859,0.569-1.539v-5.433h3.221v5.46c0,0.652-0.059,1.171-0.176,1.55
			c-0.113,0.379-0.31,0.712-0.58,0.996c-0.429,0.446-1.043,0.78-1.836,1.002c-0.791,0.222-1.757,0.336-2.901,0.336
			c-1.145,0-2.113-0.114-2.912-0.336c-0.796-0.222-1.409-0.556-1.84-1.002c-0.272-0.284-0.466-0.617-0.583-0.996
			c-0.113-0.384-0.172-0.899-0.172-1.55V37.131z"/>
        <polygon fill="#211714" points="114.25,37.131 118.841,37.131 121.035,44.034 121.083,44.034 123.268,37.131 127.861,37.131
			127.861,46.208 125.061,46.208 125.25,38.835 125.125,38.835 122.678,46.208 119.438,46.208 116.991,38.835 116.853,38.835 
			117.052,46.208 114.25,46.208 		"/>
        <path fill="#211714" d="M136.985,38.699c-0.89,0-1.6,0.261-2.126,0.793c-0.523,0.526-0.787,1.248-0.787,2.158
			c0,0.914,0.264,1.627,0.787,2.152c0.526,0.528,1.236,0.79,2.126,0.79s1.6-0.262,2.126-0.79c0.528-0.525,0.791-1.238,0.791-2.152
			c0-0.91-0.263-1.632-0.791-2.158C138.575,38.959,137.87,38.699,136.985,38.699 M136.985,36.866c1.965,0,3.527,0.434,4.682,1.292
			c1.153,0.863,1.729,2.037,1.729,3.52c0,1.478-0.575,2.646-1.727,3.505c-1.149,0.864-2.712,1.293-4.684,1.293
			c-1.973,0-3.536-0.426-4.687-1.288c-1.151-0.854-1.728-2.027-1.728-3.51c0-1.478,0.576-2.648,1.732-3.514
			C133.454,37.299,135.017,36.866,136.985,36.866"/>
        <polygon fill="#211714" points="145.217,37.131 155.285,37.131 155.285,39.016 151.857,39.016 151.857,46.208 148.63,46.208
			148.63,39.016 145.217,39.016 		"/>
        <path fill="#211714" d="M163.502,38.699c-0.887,0-1.6,0.261-2.125,0.793c-0.523,0.526-0.785,1.248-0.785,2.158
			c0,0.914,0.262,1.627,0.785,2.152c0.525,0.528,1.238,0.79,2.125,0.79c0.893,0,1.604-0.262,2.129-0.79
			c0.525-0.525,0.791-1.238,0.791-2.152c0-0.91-0.266-1.632-0.793-2.158C165.098,38.959,164.389,38.699,163.502,38.699
			 M163.502,36.866c1.965,0,3.529,0.434,4.686,1.292c1.15,0.863,1.729,2.037,1.729,3.52c0,1.478-0.578,2.646-1.727,3.505
			c-1.148,0.864-2.715,1.293-4.688,1.293c-1.971,0-3.531-0.426-4.684-1.288c-1.152-0.854-1.727-2.027-1.727-3.51
			c0-1.478,0.578-2.648,1.729-3.514C159.975,37.299,161.535,36.866,163.502,36.866"/>
        <path fill="#211714" d="M175.797,38.967V40.8h2.189c0.592,0,1.041-0.077,1.342-0.237c0.313-0.156,0.465-0.386,0.465-0.685
			s-0.152-0.523-0.465-0.678c-0.301-0.154-0.75-0.233-1.342-0.233H175.797z M172.656,37.131h4.674c0.902,0,1.623,0.019,2.16,0.059
			c0.535,0.042,1.004,0.106,1.396,0.196c0.646,0.145,1.148,0.408,1.514,0.787c0.361,0.382,0.545,0.833,0.545,1.363
			c0,0.588-0.191,1.066-0.572,1.442c-0.383,0.377-0.896,0.591-1.535,0.636v0.063c0.688,0.095,1.164,0.276,1.426,0.548
			c0.262,0.269,0.396,0.808,0.396,1.614v0.702c0,0.467,0.041,0.827,0.135,1.069c0.092,0.244,0.244,0.446,0.455,0.598h-3.502
			c-0.096-0.117-0.166-0.264-0.205-0.44c-0.037-0.177-0.057-0.461-0.057-0.848v-0.443c0-0.227-0.006-0.398-0.01-0.518
			c-0.004-0.117-0.012-0.232-0.021-0.337c-0.031-0.366-0.172-0.625-0.418-0.774c-0.246-0.152-0.658-0.232-1.227-0.232h-2.014v3.593
			h-3.141V37.131z"/>
	</g>
</g>
</svg>
