<?xml version="1.0" encoding="utf-8"?>
<!-- Generator: Adobe Illustrator 16.0.0, SVG Export Plug-In . SVG Version: 6.00 Build 0)  -->
<!DOCTYPE svg PUBLIC "-//W3C//DTD SVG 1.1//EN" "http://www.w3.org/Graphics/SVG/1.1/DTD/svg11.dtd">
<svg version="1.1" id="图层_1" xmlns="http://www.w3.org/2000/svg" xmlns:xlink="http://www.w3.org/1999/xlink" x="0px"
     y="0px"
     width="350.334px" height="47px" viewBox="0 0 350.334 47" enable-background="new 0 0 350.334 47"
     xml:space="preserve">
<g>
	<path fill="#333333" d="M8.568-151.698v-6.665h12.938v-2.222h5.203v2.222h12.797v6.666h-3.797v1.111H12.224v-1.111L8.568-151.698
		L8.568-151.698z M10.115-124.719v-14.283h27.844v9.521c0.092,3.279-1.455,4.865-4.641,4.762H10.115z M12.505-140.906v-7.775h23.063
		v3.491c0.092,2.962-1.314,4.392-4.219,4.285H12.505z M12.927-155.348v2.222h22.219v-2.222H12.927z M14.474-136.146v2.856h7.453
		v-2.856H14.474z M14.474-127.734h7.453v-2.857h-7.453V-127.734z M16.865-143.446h12.797c1.031,0.107,1.499-0.421,1.406-1.587
		v-1.111H16.865V-143.446z M33.599-136.146h-7.453v2.856h7.453V-136.146z M31.63-127.734c1.406,0.104,2.061-0.528,1.969-1.904
		v-0.953h-7.453v2.857H31.63z"/>
    <path fill="#333333" d="M46.93-146.302v-12.696h11.391v7.935c0.092,2.963-0.892,4.55-2.953,4.761v4.761h3.094v3.174h-3.094v6.982
		l3.656-1.27v3.332c-3.564,1.588-8.11,2.908-13.641,3.967v-3.809c0.187,0,0.422-0.052,0.703-0.158c0.281,0,0.514-0.053,0.703-0.16
		v-14.123h3.094v13.648l1.969-0.318v-16.026H46.93z M50.446-149.318h2.813c1.125,0.107,1.639-0.528,1.547-1.904v-4.761h-4.36
		V-149.318z M58.743-139.637v-3.016c2.813-0.952,5.063-2.008,6.75-3.174c-1.314-1.27-2.531-2.75-3.656-4.443
		c-0.844,0.635-1.782,1.218-2.813,1.746v-3.015c2.342-2.326,3.889-5.289,4.641-8.887h4.219c-0.281,0.952-0.563,1.904-0.844,2.856
		h9.844v3.174c-1.5,3.809-3.329,6.665-5.484,8.569c1.969,1.166,4.265,2.222,6.891,3.174v3.016c-4.408-1.163-7.688-2.434-9.844-3.809
		C65.82-141.963,62.586-140.693,58.743-139.637z M60.711-125.037v-14.283H76.18v9.363c0.092,3.385-1.455,5.024-4.641,4.919
		L60.711-125.037L60.711-125.037z M65.493-154.237c-0.281,0.317-0.563,0.742-0.844,1.27c1.125,1.904,2.342,3.491,3.656,4.761
		c1.499-1.587,2.859-3.596,4.078-6.03L65.493-154.237L65.493-154.237z M64.649-128.052h5.625c1.406,0.106,2.061-0.687,1.969-2.381
		v-5.554h-7.594V-128.052z"/>
    <path fill="#333333" d="M84.449-153.444v-3.333h7.734c0.092-0.317,0.233-0.793,0.422-1.428c0.281-0.952,0.468-1.691,0.563-2.222
		h5.063c-0.189,0.531-0.47,1.27-0.844,2.222c-0.189,0.635-0.33,1.111-0.422,1.428h18v3.333H95.699
		c-1.125,2.646-2.767,5.713-4.922,9.204h7.172v-5.872h4.781v5.872h10.266v3.492H102.73v5.713h13.078v3.491H102.73v7.618h-4.781
		v-7.618H83.465v-3.491h14.484v-5.713h-11.39v-3.491c2.061-3.702,3.562-6.769,4.5-9.204L84.449-153.444L84.449-153.444z"/>
    <path fill="#333333" d="M121.265-125.83v-3.174h9.422v-31.105h4.5v31.105h4.5v-31.105h4.359v31.105h9.563v3.174H121.265z
		 M124.921-136.622c-1.22-4.126-2.204-9.891-2.953-17.298h4.219c0.281,5.292,1.125,11.057,2.531,17.298H124.921z M146.155-136.622
		c1.218-5.288,2.062-11.054,2.531-17.298h4.219c-0.752,7.407-1.736,13.172-2.953,17.298H146.155z"/>
    <path fill="#333333" d="M176.08-141.699c-3.751-0.847-6.469-2.485-8.156-4.92c-1.688,2.329-4.549,3.967-8.578,4.92v-2.541
		c3.28-1.163,5.249-2.856,5.906-5.078h-6.047v-2.698h6.609c0.092-0.528,0.141-1.111,0.141-1.746v-2.063h-1.828
		c-1.314,1.166-3.002,1.905-5.063,2.222v-2.063c2.061-0.952,3.234-2.643,3.516-5.078h3.797c-0.095,0.213-0.141,0.424-0.141,0.635
		c-0.095,0.424-0.281,0.952-0.563,1.587h9.563v2.698h-5.343v1.429c0,1.165-0.049,1.958-0.141,2.38h6.328v2.698h-5.906
		c1.217,2.435,3.186,4.126,5.906,5.078L176.08-141.699L176.08-141.699z M162.721-124.719v-16.505h25.173v11.426
		c0.092,3.491-1.548,5.183-4.923,5.078L162.721-124.719L162.721-124.719z M166.94-138.05v3.649h16.734v-3.649H166.94z
		 M166.94-127.893h14.906c1.312,0.104,1.921-0.581,1.828-2.063v-1.587H166.94V-127.893L166.94-127.893z M177.346-143.763v-14.759
		h12.798v9.998c0,3.174-1.406,4.761-4.22,4.761H177.346z M181.144-146.62h3.375c1.217,0,1.827-0.739,1.827-2.222v-6.824h-5.202
		V-146.62z"/>
    <path fill="#333333" d="M210.226-148.048l-0.281-1.587c-2.721,0.424-7.031,0.635-12.938,0.635v-3.491
		c2.343-2.326,4.265-5.024,5.767-8.094h4.78c-1.877,3.491-3.892,6.189-6.047,8.094c3.468,0,5.952-0.104,7.453-0.317
		c-0.188-0.845-0.703-2.115-1.547-3.809h3.516c1.406,2.54,2.531,5.396,3.375,8.57L210.226-148.048L210.226-148.048z
		 M198.131-124.242v-22.377h14.345v17.457c0.092,3.278-1.361,4.865-4.359,4.761h-2.813v-3.174h1.548
		c1.217,0.104,1.778-0.422,1.688-1.587v-2.222h-6.469v7.143H198.131z M202.067-143.605v3.333h6.47v-3.333H202.067z M202.067-137.415
		v3.333h6.47v-3.333H202.067z M219.226-143.922c-2.908,0.107-4.313-1.532-4.22-4.919v-11.585h4.22v5.554
		c2.623-0.635,4.5-2.063,5.625-4.285h3.938c-1.406,4.233-4.596,6.666-9.563,7.3v2.539c-0.096,1.483,0.514,2.17,1.827,2.063h2.953
		c1.218,0.107,1.779-0.58,1.688-2.063v-0.952h3.233v1.746c0.093,3.174-1.313,4.709-4.219,4.602H219.226z M219.226-124.719
		c-2.813,0.104-4.174-1.376-4.078-4.443v-13.49h4.078v6.348c2.717-0.845,4.592-2.484,5.625-4.919h4.077
		c-1.501,4.55-4.735,7.195-9.702,7.935v3.492c-0.096,1.271,0.514,1.904,1.827,1.904h2.953c1.218,0,1.779-0.636,1.688-1.904v-0.953
		h3.375v1.905c0.092,2.855-1.36,4.23-4.359,4.126L219.226-124.719L219.226-124.719z"/>
    <path fill="#333333" d="M238.321-124.085v-22.693c-1.221,0.635-2.531,1.218-3.938,1.746v-2.857c3.375-2.326,5.53-6.506,6.47-12.537
		h4.641c-0.844,3.809-1.782,6.72-2.813,8.729v27.613L238.321-124.085L238.321-124.085z M255.899-125.037
		c-3.752,0.104-5.58-1.693-5.484-5.396v-7.3c-0.751,0.316-1.876,0.688-3.375,1.11c-0.938,0.317-1.643,0.531-2.109,0.636v-3.334
		c0.281-0.104,0.703-0.263,1.266-0.476c1.875-0.739,3.281-1.374,4.22-1.903v-18.727h4.78v15.552
		c3.188-2.643,5.531-6.189,7.031-10.633h4.642c-2.25,7.09-6.142,12.22-11.673,15.394v8.888c0,2.011,0.797,3.016,2.392,3.016h3.233
		c1.406,0,2.109-0.793,2.109-2.381v-2.222h3.656v2.856c0.093,3.384-1.547,5.024-4.922,4.919H255.899z"/>
    <path fill="#333333" d="M274.012-155.348v-3.492h29.392v3.491h-12.375v15.394h13.781v3.491h-13.781v12.537h-4.781v-12.536h-13.781
		v-3.49h13.781v-15.395H274.012z M278.371-143.287c-1.406-2.96-2.345-5.923-2.813-8.887h4.641c0.373,2.963,1.125,5.926,2.25,8.887
		H278.371z M294.823-143.287c1.218-2.96,1.97-5.923,2.25-8.887h4.5c-0.563,3.281-1.454,6.244-2.672,8.887H294.823z"/>
    <path fill="#333333" d="M337.265-143.605c-0.188-0.845-0.422-1.691-0.703-2.539c-5.906,0.848-12.984,1.27-21.233,1.27h-3.234
		v-3.967c3.749-3.491,6.609-7.352,8.578-11.585h5.483c-2.344,4.761-5.438,8.624-9.28,11.585c7.405,0,13.593-0.21,18.563-0.635
		c-0.377-1.27-1.174-3.174-2.392-5.713h4.078c1.78,3.281,3.327,7.142,4.642,11.585L337.265-143.605L337.265-143.605z
		 M313.64-125.195v-16.187h25.734v10.95c0.093,3.596-1.596,5.342-5.063,5.236H313.64z M318.14-128.211h14.484
		c1.499,0.107,2.202-0.793,2.109-2.697v-6.982H318.14V-128.211L318.14-128.211z"/>
</g>
    <g>
	<path d="M0-51.242v-5.906h12.938v-1.969h5.203v1.969h12.797v5.906h-3.797v0.984H3.656v-0.984H0z M1.547-27.336v-12.656h27.844
		v8.438c0.092,2.905-1.455,4.312-4.641,4.219L1.547-27.336L1.547-27.336z M3.938-41.68v-6.891H27v3.094
		c0.092,2.626-1.314,3.892-4.219,3.797H3.938z M4.359-54.477v1.969h22.219v-1.969H4.359z M5.906-37.461v2.531h7.453v-2.531H5.906z
		 M5.906-30.008h7.453v-2.531H5.906V-30.008z M8.297-43.93h12.797c1.031,0.095,1.499-0.374,1.406-1.406v-0.984H8.297V-43.93z
		 M25.031-37.461h-7.453v2.531h7.453V-37.461z M23.063-30.008c1.406,0.093,2.061-0.468,1.969-1.688v-0.844h-7.453v2.531
		L23.063-30.008L23.063-30.008z"/>
        <path d="M38.362-46.461v-11.25h11.391v7.031c0.092,2.626-0.892,4.032-2.953,4.219v4.219h3.094v2.813H46.8v6.188l3.656-1.125v2.953
		c-3.564,1.406-8.11,2.577-13.641,3.516v-3.375c0.187,0,0.422-0.046,0.703-0.141c0.281,0,0.514-0.046,0.703-0.141V-44.07h3.094
		v12.094l1.969-0.281V-46.46L38.362-46.461L38.362-46.461z M41.878-49.133h2.813c1.125,0.095,1.639-0.468,1.547-1.688v-4.219h-4.359
		L41.878-49.133L41.878-49.133z M50.175-40.555v-2.672c2.813-0.844,5.063-1.78,6.75-2.813c-1.314-1.125-2.531-2.437-3.656-3.938
		c-0.844,0.563-1.782,1.079-2.813,1.547v-2.672c2.342-2.061,3.889-4.687,4.641-7.875h4.219c-0.281,0.844-0.563,1.688-0.844,2.531
		h9.844v2.813c-1.5,3.375-3.329,5.906-5.484,7.594c1.969,1.033,4.265,1.969,6.891,2.813v2.672c-4.408-1.03-7.688-2.155-9.844-3.375
		C57.252-42.616,54.018-41.491,50.175-40.555z M52.144-27.617v-12.656h15.469v8.297c0.092,2.999-1.455,4.452-4.641,4.359H52.144z
		 M56.925-53.492c-0.281,0.281-0.563,0.657-0.844,1.125c1.125,1.688,2.342,3.094,3.656,4.219c1.499-1.406,2.859-3.186,4.078-5.344
		H56.925z M56.081-30.289h5.625c1.406,0.095,2.061-0.608,1.969-2.109v-4.922h-7.594V-30.289z"/>
        <path d="M75.881-52.789v-2.953h7.734c0.092-0.281,0.233-0.703,0.422-1.266c0.281-0.844,0.468-1.499,0.563-1.969h5.063
		c-0.189,0.47-0.47,1.125-0.844,1.969c-0.189,0.563-0.33,0.984-0.422,1.266h18v2.953H87.131c-1.125,2.345-2.767,5.063-4.922,8.156
		h7.172v-5.203h4.781v5.203h10.266v3.094H94.163v5.063h13.078v3.094H94.163v6.75h-4.781v-6.75H74.897v-3.094h14.484v-5.063h-11.39
		v-3.094c2.061-3.28,3.562-5.999,4.5-8.156H75.881z"/>
        <path d="M112.697-28.32v-2.813h9.422v-27.563h4.5v27.563h4.5v-27.563h4.359v27.563h9.563v2.813H112.697z M116.353-37.883
		c-1.22-3.656-2.204-8.765-2.953-15.328h4.219c0.281,4.689,1.125,9.798,2.531,15.328H116.353z M137.587-37.883
		c1.217-4.687,2.061-9.795,2.531-15.328h4.219c-0.752,6.563-1.736,11.672-2.953,15.328H137.587z"/>
        <path d="M167.512-42.383c-3.75-0.749-6.469-2.202-8.156-4.359c-1.688,2.063-4.549,3.516-8.578,4.359v-2.25
		c3.281-1.03,5.25-2.531,5.906-4.5h-6.046v-2.391h6.609c0.092-0.468,0.141-0.984,0.141-1.547v-1.828h-1.828
		c-1.314,1.033-3.002,1.688-5.062,1.969v-1.828c2.06-0.844,3.234-2.342,3.515-4.5h3.797c-0.094,0.189-0.141,0.376-0.141,0.563
		c-0.094,0.376-0.281,0.844-0.563,1.406h9.563v2.391h-5.344v1.266c0,1.033-0.049,1.736-0.141,2.109h6.328v2.391h-5.906
		c1.217,2.158,3.186,3.656,5.906,4.5V-42.383L167.512-42.383z M154.152-27.336v-14.625h25.172v10.125
		c0.092,3.094-1.548,4.593-4.922,4.5H154.152z M158.371-39.148v3.234h16.734v-3.234H158.371z M158.371-30.148h14.906
		c1.313,0.093,1.92-0.515,1.828-1.828v-1.406h-16.734V-30.148L158.371-30.148z M168.777-44.211v-13.078h12.797v8.859
		c0,2.813-1.406,4.219-4.22,4.219H168.777z M172.574-46.742h3.375c1.217,0,1.827-0.655,1.827-1.969v-6.047h-5.202V-46.742z"/>
        <path d="M201.656-48.008l-0.281-1.406c-2.722,0.376-7.031,0.563-12.938,0.563v-3.094c2.342-2.061,4.267-4.452,5.767-7.172h4.78
		c-1.877,3.094-3.891,5.484-6.047,7.172c3.467,0,5.953-0.092,7.453-0.281c-0.188-0.749-0.703-1.874-1.547-3.375h3.516
		c1.406,2.25,2.531,4.781,3.375,7.594L201.656-48.008L201.656-48.008z M189.563-26.914v-19.828h14.344v15.469
		c0.092,2.905-1.359,4.312-4.359,4.219h-2.813v-2.813h1.547c1.217,0.093,1.779-0.374,1.688-1.406v-1.969h-6.47v6.328H189.563z
		 M193.5-44.07v2.953h6.469v-2.953H193.5z M193.5-38.586v2.953h6.469v-2.953H193.5z M210.656-44.352
		c-2.906,0.095-4.313-1.358-4.22-4.359v-10.266h4.22v4.922c2.622-0.563,4.5-1.828,5.625-3.797h3.938
		c-1.406,3.751-4.595,5.906-9.563,6.469v2.25c-0.095,1.314,0.514,1.923,1.827,1.828h2.953c1.217,0.095,1.779-0.514,1.688-1.828
		v-0.844h3.233v1.547c0.093,2.813-1.313,4.173-4.219,4.078H210.656z M210.656-27.336c-2.813,0.093-4.173-1.22-4.078-3.938v-11.953
		h4.078v5.625c2.719-0.749,4.592-2.202,5.625-4.359h4.077c-1.5,4.032-4.733,6.376-9.702,7.031v3.094
		c-0.095,1.125,0.514,1.688,1.827,1.688h2.953c1.217,0,1.779-0.563,1.688-1.688v-0.844h3.375v1.688
		c0.092,2.531-1.358,3.749-4.358,3.656H210.656z"/>
        <path d="M229.754-26.773v-20.109c-1.221,0.563-2.53,1.079-3.938,1.547v-2.531c3.375-2.061,5.529-5.766,6.47-11.109h4.641
		c-0.844,3.375-1.782,5.955-2.813,7.734v24.469L229.754-26.773L229.754-26.773z M247.332-27.617
		c-3.752,0.093-5.58-1.501-5.483-4.781v-6.469c-0.752,0.281-1.877,0.611-3.375,0.984c-0.939,0.281-1.644,0.47-2.109,0.563v-2.953
		c0.281-0.092,0.703-0.233,1.266-0.422c1.873-0.655,3.279-1.217,4.219-1.688v-16.594h4.781v13.781
		c3.186-2.342,5.529-5.484,7.031-9.422h4.641c-2.25,6.282-6.143,10.828-11.672,13.641v7.875c0,1.782,0.795,2.672,2.391,2.672h3.234
		c1.406,0,2.109-0.703,2.109-2.109v-1.969h3.656v2.531c0.092,2.999-1.547,4.452-4.922,4.359L247.332-27.617L247.332-27.617z"/>
        <path d="M265.442-54.477v-3.094h29.392v3.094h-12.375v13.641h13.781v3.094h-13.781v11.109h-4.781v-11.109h-13.78v-3.094h13.78
		v-13.641H265.442z M269.804-43.789c-1.406-2.624-2.345-5.249-2.813-7.875h4.641c0.373,2.626,1.125,5.251,2.25,7.875H269.804z
		 M286.256-43.789c1.218-2.624,1.97-5.249,2.25-7.875h4.5c-0.563,2.907-1.455,5.533-2.672,7.875H286.256z"/>
        <path d="M328.696-44.07c-0.188-0.749-0.422-1.499-0.702-2.25c-5.906,0.751-12.986,1.125-21.234,1.125h-3.233v-3.516
		c3.748-3.094,6.608-6.515,8.578-10.266h5.483c-2.346,4.219-5.438,7.642-9.28,10.266c7.403,0,13.592-0.187,18.563-0.563
		c-0.377-1.125-1.174-2.813-2.391-5.063h4.078c1.778,2.907,3.325,6.328,4.641,10.266L328.696-44.07L328.696-44.07z M305.071-27.758
		v-14.344h25.734v9.703c0.092,3.187-1.596,4.733-5.063,4.641H305.071z M309.571-30.43h14.484c1.498,0.095,2.201-0.703,2.109-2.391
		v-6.188h-16.594V-30.43L309.571-30.43z"/>
</g>
    <g>
	<path d="M10.451,12.232V8.687h34.011v3.545H10.451z M10.507,40.021V20.171c0-1.92,0.356-3.231,1.071-3.933
		c0.824-0.812,1.908-1.218,3.25-1.218h7.183c1.378,0,2.474,0.413,3.287,1.237c0.763,0.764,1.145,1.822,1.145,3.176v13.774
		c0,2.327-0.419,4.001-1.256,5.022c-0.985,1.219-2.413,1.828-4.284,1.828c-0.172,0-0.431-0.013-0.775-0.037v-3.453
		c0.209,0.013,0.351,0.019,0.425,0.019c1.6,0,2.4-0.813,2.4-2.438l0.037-13.958c0-0.665-0.154-1.126-0.461-1.385
		c-0.258-0.222-0.751-0.333-1.477-0.333l-5.779,0.019c-0.419,0-0.689,0.055-0.813,0.166c-0.333,0.271-0.499,0.732-0.499,1.385
		l0.019,19.979H10.507z M16.71,33.078v-10.95h3.472v10.95H16.71z M28.472,40.021V19.728c0-3.089,1.342-4.634,4.025-4.634h6.721
		c1.686,0,2.886,0.258,3.601,0.775c1.058,0.739,1.588,1.908,1.588,3.508v14.938c0,1.932-0.566,3.403-1.699,4.413
		c-0.985,0.873-2.259,1.311-3.822,1.311c-0.283,0-0.554-0.007-0.813-0.019v-3.472c0.209,0.013,0.394,0.019,0.554,0.019
		c0.984,0,1.667-0.308,2.049-0.923c0.172-0.259,0.259-0.738,0.259-1.44l-0.019-14.328c0-0.369-0.124-0.695-0.37-0.979
		c-0.246-0.271-0.72-0.406-1.421-0.406h-5.706c-0.628,0-1.065,0.191-1.311,0.572c-0.111,0.172-0.166,0.499-0.166,0.979v19.979
		H28.472z M34.732,33.078v-10.95h3.471v10.95H34.732z"/>
        <path d="M49.245,15.094h3.435l-1.145,5.668c-0.062,0.308-0.092,0.536-0.092,0.683c0,0.357,0.222,0.536,0.665,0.536h3.767
		l1.366-8.05c0.037-0.197,0.056-0.394,0.056-0.591c0-0.714-0.339-1.071-1.016-1.071h-7.773V8.797h8.918
		c1.071,0,1.896,0.29,2.474,0.868c0.542,0.53,0.813,1.2,0.813,2.013c0,0.259-0.018,0.517-0.055,0.775l-1.477,9.731
		c1.428,0.64,2.142,1.643,2.142,3.01l-0.019,11.558c0,1.12-0.313,1.988-0.941,2.604c-0.628,0.604-1.366,0.905-2.216,0.905h-9.195
		v-3.379h7.57c0.886,0,1.33-0.4,1.33-1.2v-8.9c0-0.947-0.413-1.421-1.237-1.421h-6.019c-1.01,0-1.754-0.363-2.234-1.09
		c-0.258-0.381-0.388-0.831-0.388-1.348c0-0.172,0.019-0.356,0.056-0.554L49.245,15.094z M48.044,32.635v-3.36h8.051v3.36H48.044z
		 M62.41,16.626l0.019-3.508l1.662-0.24V8.705h3.472v3.73l3.563-0.462l-0.019-3.268h3.416v2.843l2.419-0.24
		c0.135-0.012,0.277-0.019,0.424-0.019c1.44,0,2.579,0.456,3.416,1.366c0.948,1.034,1.422,2.296,1.422,3.785l0.019,9.879
		c0,1.994-0.683,3.489-2.05,4.486c-0.406,0.296-0.948,0.554-1.625,0.775c-0.677,0.222-1.244,0.333-1.699,0.333l-1.237-0.019v-3.472
		l0.868,0.019c0.529,0.024,1.009-0.142,1.44-0.498c0.554-0.443,0.831-1.053,0.831-1.828v-8.568c0-1.12-0.191-1.871-0.573-2.252
		c-0.345-0.357-0.782-0.536-1.311-0.536c-0.024,0-0.074,0.006-0.147,0.019l-2.197,0.259v17.781h-3.416V15.481l-3.545,0.461v18.335
		c0,0.973,0.233,1.637,0.702,1.994c0.406,0.319,0.979,0.479,1.717,0.479h12.242v3.49H69.888c-1.982,0.012-3.49-0.566-4.523-1.735
		c-0.85-0.961-1.274-2.143-1.274-3.546V16.368L62.41,16.626z"/>
        <path d="M101.333,11.346v-2.77h3.379l0.037,2.77l8.826-0.019c1.489,0,2.702,0.4,3.638,1.2c1.046,0.886,1.569,1.982,1.569,3.287
		v11.743c0,1.576-0.443,2.795-1.329,3.656c-0.875,0.85-1.89,1.274-3.047,1.274h-9.657l-0.019,2.511c0,1.034,0.788,1.551,2.363,1.551
		h12.962v3.416h-13.738c-1.637,0-2.905-0.468-3.804-1.403c-0.8-0.824-1.2-1.871-1.2-3.139l0.019-2.936h-8.9
		c-1.403,0-2.437-0.216-3.102-0.646c-1.453-0.947-2.179-2.369-2.179-4.266l-0.018-11.743c0-1.207,0.449-2.247,1.348-3.121
		c0.936-0.911,2.019-1.366,3.25-1.366H101.333z M90.568,20.098h10.765v-5.336h-8.419c-0.862,0-1.459,0.191-1.791,0.573
		c-0.382,0.431-0.573,0.855-0.573,1.274L90.568,20.098z M101.333,29.071v-5.558H90.568l-0.019,3.748c0,0.566,0.215,1.04,0.646,1.422
		c0.295,0.259,0.732,0.388,1.311,0.388H101.333z M104.749,20.098h10.617V16.83c0-0.714-0.284-1.274-0.85-1.681
		c-0.357-0.258-0.775-0.388-1.255-0.388h-8.512V20.098z M104.749,29.071h8.623c1.329,0,1.994-0.708,1.994-2.123v-3.435h-10.617
		V29.071z"/>
        <path d="M123.804,12.786V9.314h15.584v3.471H123.804z M123.804,22.646v-3.416h15.584v3.416h-7.09l-3.749,12.021
		c-0.147,0.492-0.221,0.868-0.221,1.126c0,0.604,0.492,0.905,1.477,0.905h4.376c0.677,0,1.194-0.154,1.551-0.462
		c0.32-0.283,0.48-0.634,0.48-1.053c0-0.233-0.049-0.522-0.148-0.867l-0.775-2.77h3.508l0.775,3.083
		c0.147,0.566,0.222,1.021,0.222,1.366c0,1.478-0.683,2.609-2.05,3.397c-0.911,0.529-1.951,0.794-3.12,0.794h-6.13
		c-1.563,0-2.745-0.388-3.545-1.163c-0.604-0.591-0.905-1.397-0.905-2.419c0-0.652,0.135-1.391,0.406-2.216l3.785-11.743H123.804z
		 M140.385,40.224v-4.191c0.763-0.369,1.305-0.99,1.625-1.865c0.332-0.873,0.56-1.877,0.683-3.01l1.828-16.211h-4.136v-3.471h4.523
		l0.296-2.548h3.545l-0.295,2.548h3.859c1.194,0,2.074,0.111,2.641,0.333c1.243,0.468,2.111,1.33,2.604,2.585
		c0.209,0.529,0.314,1.133,0.314,1.81v18.962c0,1.502-0.37,2.653-1.108,3.453c-0.948,1.046-2.234,1.569-3.859,1.569h-4.856v-3.397
		h3.915c0.984,0.013,1.662-0.209,2.031-0.664c0.308-0.37,0.462-0.954,0.462-1.755V17.18c0-1.489-0.714-2.234-2.142-2.234h-4.284
		l-1.938,16.47c-0.284,2.4-0.948,4.376-1.994,5.927C143.247,38.623,142.01,39.583,140.385,40.224z"/>
        <path d="M161.637,24.77l-0.019-3.14c2.745-0.32,4.782-1.304,6.112-2.954h-5.872v-3.36h-0.167v-3.619
		c1.378-0.406,2.357-1.44,2.936-3.102h3.674l-0.425,1.403h11.78v3.416h-6.961v1.846h6.961v3.416h-5.872
		c1.625,1.785,3.619,2.751,5.983,2.899v3.195c-2.191-0.333-3.921-0.819-5.189-1.459c-1.366-0.677-2.585-1.625-3.656-2.844
		c-1.01,1.083-1.958,1.877-2.844,2.382C166.419,23.784,164.271,24.425,161.637,24.77z M162.154,15.26h6.666v-1.846l-3.25,0.019
		c-0.468,0.357-0.843,0.627-1.126,0.812C163.951,14.564,163.188,14.903,162.154,15.26z M162.154,36.826v-7.792
		c0-2.228,1.218-3.342,3.656-3.342h25.425c0.923,0,1.582,0.068,1.976,0.203c1.354,0.479,2.031,1.489,2.031,3.028v7.459
		c0,1.256-0.308,2.191-0.923,2.807c-0.345,0.345-0.665,0.572-0.961,0.684c-0.479,0.159-1.157,0.24-2.03,0.24h-25.721
		c-1.169,0-2.056-0.333-2.659-0.997C162.418,38.513,162.154,37.749,162.154,36.826z M165.57,31.084h26.238v-0.887
		c0-0.763-0.474-1.145-1.422-1.145h-23.634c-0.788,0-1.182,0.351-1.182,1.053V31.084z M191.808,34.5H165.57v1.163
		c0,0.701,0.486,1.053,1.459,1.053h22.619c1.071,0,1.699-0.093,1.884-0.277c0.185-0.173,0.276-0.492,0.276-0.96V34.5z
		 M181.561,21.316v-8.9c0-0.898,0.276-1.637,0.83-2.216c0.604-0.64,1.446-0.96,2.53-0.96h7.22c1.193,0,2.098,0.295,2.714,0.886
		c0.603,0.579,0.904,1.342,0.904,2.29v8.438c0,1.305-0.302,2.247-0.904,2.825c-0.616,0.604-1.293,0.905-2.031,0.905h-7.902
		c-1.022,0-1.828-0.277-2.419-0.832C181.874,23.163,181.561,22.35,181.561,21.316z M192.344,20.116v-6.241
		c0-0.813-0.389-1.219-1.164-1.219h-5.243c-0.678,0-1.016,0.382-1.016,1.145v6.315c0,0.702,0.338,1.052,1.016,1.052h5.151
		C191.925,21.168,192.344,20.818,192.344,20.116z"/>
        <path d="M201.003,8.631h3.675c-0.247,0.677-0.585,1.699-1.016,3.065c-0.432,1.268-0.646,2.043-0.646,2.327
		c0,0.456,0.296,0.683,0.887,0.683l7.644,0.019c0.518,0,0.991-0.203,1.422-0.609c0.308-0.295,0.462-0.659,0.462-1.089
		c0-0.566-0.123-1.526-0.369-2.88h3.416c0.356,1.428,0.535,2.689,0.535,3.785c0,1.576-0.616,2.732-1.847,3.471
		c-0.837,0.492-1.914,0.738-3.231,0.738h-7.662c-1.772,0-2.998-0.252-3.675-0.757c-0.85-0.615-1.273-1.52-1.273-2.714
		c0-0.652,0.246-1.668,0.738-3.046C200.345,10.872,200.658,9.875,201.003,8.631z M199.618,40.039V23.643
		c0-2.474,1.225-3.711,3.675-3.711h9.472c2.659,0,3.988,1.219,3.988,3.656v12.629c0,2.585-1.169,3.865-3.508,3.841l-1.699-0.019
		v-3.397h0.739c0.591,0,0.929-0.277,1.016-0.831h-10.267v4.229H199.618z M203.034,26.172h10.321v-1.624
		c0-0.788-0.431-1.182-1.292-1.182l-7.534-0.019c-0.984,0-1.477,0.363-1.477,1.089L203.034,26.172z M203.034,32.395h10.321v-2.843
		h-10.321V32.395z M219.098,8.687h3.416v2.308h11.116v3.416h-11.116v4.616c0,0.345,0.074,0.597,0.222,0.757
		c0.16,0.172,0.529,0.258,1.108,0.258h9.675v3.416h-10.543c-1.44-0.012-2.443-0.314-3.01-0.905
		c-0.579-0.603-0.868-1.446-0.868-2.529V8.687z M219.319,25.12h3.416v2.289h10.857v3.416h-10.857v4.764
		c0,0.727,0.394,1.09,1.182,1.09h9.583v3.416h-10.432c-1.342,0-2.309-0.283-2.899-0.85c-0.554-0.542-0.831-1.478-0.831-2.807
		L219.319,25.12z"/>
        <path d="M237.304,23.403v-4.432c1.625-1.034,2.898-2.609,3.822-4.727c0.591-1.354,1.145-3.12,1.661-5.299h3.859
		c-0.345,2.104-1.077,4.499-2.197,7.183v24.17h-3.563V21.131c-0.604,0.579-1.188,1.028-1.754,1.348
		C238.762,22.689,238.152,22.997,237.304,23.403z M249.379,23.384l7.091-3.435V8.834h3.434v9.435
		c3.299-1.452,5.318-2.523,6.057-3.213c0.764-0.702,1.354-1.957,1.772-3.767h3.582c-0.16,1.391-0.437,2.573-0.831,3.545
		c-0.824,2.006-2.332,3.521-4.523,4.542l-6.057,2.788v12.353c0,0.677,0.203,1.193,0.609,1.551c0.406,0.356,0.88,0.535,1.422,0.535
		h9.398v3.472h-9.564c-1.687,0-2.991-0.462-3.914-1.385c-0.924-0.911-1.385-2.093-1.385-3.546V23.698l-7.091,3.231V23.384z"/>
        <path d="M275.138,30.678v-3.472h15.398V12.01h-15.398V8.594h34.232v3.416h-15.418v15.196h15.418v3.472h-15.418v9.38h-3.416v-9.38
		H275.138z M277.87,13.746h3.435l0.498,4.616c0.173,1.65,0.468,2.702,0.887,3.158c0.381,0.418,0.972,0.665,1.772,0.738v3.435
		c-1.761-0.135-3.188-0.757-4.284-1.865c-0.911-0.948-1.452-2.209-1.624-3.785L277.87,13.746z M300.046,25.655v-3.397
		c0.936-0.147,1.563-0.425,1.883-0.831c0.382-0.504,0.641-1.403,0.775-2.696l0.536-4.985h3.435l-0.591,5.502
		c-0.148,1.416-0.376,2.456-0.684,3.121c-0.505,1.145-1.416,2.043-2.732,2.696C301.941,25.422,301.067,25.618,300.046,25.655z"/>
        <path d="M316.35,8.724h4.024l-3.102,8.235c-0.11,0.283-0.166,0.566-0.166,0.85c0,0.738,0.56,1.108,1.68,1.108h22.36
		c1.44,0,2.16-0.554,2.16-1.662c0-0.209-0.043-0.443-0.129-0.702l-1.422-4.413h3.509c0.185,0.591,0.461,1.514,0.831,2.77
		c0.554,1.724,0.83,2.856,0.83,3.397c0,1.317-0.695,2.394-2.086,3.231c-0.96,0.566-2.438,0.85-4.432,0.85H318.27
		c-1.871,0-3.176-0.265-3.914-0.794c-0.887-0.628-1.33-1.502-1.33-2.622c0-0.665,0.166-1.471,0.499-2.419L316.35,8.724z
		 M313.562,36.014v-7.071c0-2.438,1.279-3.656,3.84-3.656h24.927c1.44,0,2.493,0.271,3.158,0.813
		c0.455,0.382,0.757,0.818,0.904,1.311c0.086,0.308,0.129,0.819,0.129,1.533v7.699c0,0.984-0.203,1.724-0.609,2.216
		c-0.431,0.541-0.979,0.898-1.643,1.07c-0.32,0.087-0.85,0.13-1.588,0.13h-25.186c-1.662,0-2.831-0.475-3.509-1.422
		C313.702,38.217,313.562,37.343,313.562,36.014z M318.177,36.586h23.782c0.468,0,0.794-0.123,0.979-0.369
		c0.111-0.147,0.167-0.443,0.167-0.886v-5.503c0-0.714-0.363-1.071-1.09-1.071h-23.985c-0.701,0-1.053,0.333-1.053,0.997v5.909
		C316.977,36.278,317.377,36.586,318.177,36.586z"/>
</g>
    <text transform="matrix(1 0 0 1 0 -198.7646)" font-family="'TRENDS'" font-size="37.8149">丽驰电动智能化平台</text>
</svg>
